<svg xmlns="http://www.w3.org/2000/svg" width="32" height="32" viewBox="0 0 36 36"><path fill="#000" d="M8 19v-8H5a3 3 0 0 0-3 3v18a1 1 0 0 0 .56.89a1 1 0 0 0 1-.1L8.71 29h13.44A2.77 2.77 0 0 0 25 26.13V25H14a6 6 0 0 1-6-6" class="clr-i-solid--badged clr-i-solid-path-1--badged"/><path fill="#000" d="M30 13.5A7.48 7.48 0 0 1 22.78 4H14a3 3 0 0 0-3 3v12a3 3 0 0 0 3 3h13.55l4.78 3.71a1 1 0 0 0 1 .11a1 1 0 0 0 .57-.9V12.37A7.45 7.45 0 0 1 30 13.5" class="clr-i-solid--badged clr-i-solid-path-2--badged"/><circle cx="30" cy="6" r="5" fill="#000" class="clr-i-solid--badged clr-i-solid-path-3--badged clr-i-badge"/><path fill="none" d="M0 0h36v36H0z"/></svg>